<?xml version="1.0" encoding="utf-8"?>
<!-- Generator: Adobe Illustrator 27.6.1, SVG Export Plug-In . SVG Version: 6.00 Build 0)  -->
<svg version="1.1" id="Layer_1" xmlns="http://www.w3.org/2000/svg" xmlns:xlink="http://www.w3.org/1999/xlink" x="0px" y="0px"
	 viewBox="0 0 1280 328.8" style="enable-background:new 0 0 1280 328.8;" xml:space="preserve">
<style type="text/css">
	.st0{fill:#8C3064;}
	.st1{fill:#292253;}
	.st2{fill:#FBBF52;}
	.st3{fill:#FBBF52;stroke:#FBBF52;stroke-width:0.25;stroke-miterlimit:10;}
	.st4{fill:#292253;stroke:#292253;stroke-width:0.25;stroke-miterlimit:10;}
	.st5{fill:#FFFFFF;}
	.st6{fill:#F70000;}
	.st7{enable-background:new    ;}
	.st8{fill:#BFBFBF;}
</style>
<g>
	<g>
		<path class="st1" d="M165.8,181.3v140.5L276,262.2c15-8.1,24.3-23.8,24.3-40.8V109.2L165.8,181.3z"/>
		<path class="st2" d="M127.6,197.5v105.3l-91.6-49.4c-11.9-6.4-19.2-18.8-19.2-32.3v-92.2l100.4,54.2l12.6-6.6L5,109v112.1
			c0,17.8,9.7,34.2,25.4,42.7l109,58.9V191.3L127.6,197.5z"/>
		<path class="st0" d="M258.6,88.5l-106,56.9L30.1,79.7l104.5-57c11.2-6.1,24.6-6.1,35.8,0l88.4,48.2l24.7,0L176.2,12.2
			c-14.8-8.1-32.4-8.1-47.2,0L5.3,79.7l147.3,79l131-70.3L258.6,88.5z"/>
	</g>
	<g>
		<path class="st2" d="M949.7,63.5c-1.1,0-2.2,0.5-3,1.3c-0.8,0.8-1.3,1.9-1.3,3l0,56.4c0,2.4,1.9,4.3,4.3,4.3l14.4,0
			c1.1,0,2.2-0.5,3-1.3s1.3-1.9,1.3-3l0-56.4c0-2.4-1.9-4.3-4.3-4.3L949.7,63.5L949.7,63.5z"/>
	</g>
	<g>
		<path class="st2" d="M957.2,265.2c-14.9,0-29-2.5-41.7-7.6c-12.8-5-24-12.2-33.4-21.3c-9.3-9.1-16.7-19.8-22-32
			c-5.2-12.2-7.9-25.6-7.9-40c0-14.4,2.7-27.8,7.9-40c5.2-12.2,12.6-22.9,22-32c9.4-9.1,20.5-16.2,33.2-21.3c2.9-1.2,6-1.9,9-2.7
			l5.4-1.4v16.7c0,7.1-3.8,13.8-9.9,17.5c-0.1,0.1-9.2,5.6-14.5,11.2l-0.4,0.4l-1.5-1.5l1.5,1.5c-6.6,6.5-11.7,14.2-15.4,22.9
			c-3.6,8.7-5.5,18.3-5.5,28.6c0,10.3,1.8,20,5.5,28.6c3.6,8.7,8.8,16.4,15.4,22.9c6.6,6.5,14.4,11.6,23.1,15.1
			c8.8,3.6,18.6,5.4,29.1,5.4c10.3,0,20-1.8,28.8-5.4c8.8-3.5,16.5-8.6,23-15.1c6.5-6.5,11.6-14.2,15.2-22.9
			c3.6-8.7,5.5-18.3,5.5-28.6c0-10.3-1.8-20-5.5-28.6c-3.6-8.7-8.8-16.4-15.2-22.9c-6.5-6.5-14.2-11.5-23-15.1
			c-0.2,0-0.4-0.1-0.6-0.2l-1.4-0.5V67l5.5,1.4c3,0.7,6.1,1.5,9.1,2.7c12.6,5,23.8,12.1,33.2,21.1c9.4,9.1,16.8,19.8,22,32
			c5.1,12.2,7.7,25.7,7.7,40.2c0,14.6-2.6,28.1-7.7,40.2c-5.1,12.1-12.5,22.9-22,32c-9.4,9.1-20.6,16.2-33.2,21.1
			C986,262.7,972.1,265.2,957.2,265.2z"/>
	</g>
	<g>
		<g>
			<path class="st1" d="M565.9,320.2c-0.4,0-0.8,0-1.3-0.1c-0.2,0-0.4-0.1-0.7-0.1l-2.1-0.1v-27l2.2,0.1c0.4,0,0.7,0.1,1.1,0.1
				c0.2,0,0.5,0.1,0.7,0.1c5.9,0,10.8-1.5,14.6-4.5c3.9-3.1,7.7-8.7,11.2-16.8l33.5-73.1l31-71.9c3.2-7.4,10.5-12.2,18.6-12.2h17.3
				l-1.3,3l-70.8,160.6c-4.3,10.4-9.2,18.8-14.6,24.8c-5.4,6.1-11.5,10.5-18,13.1C580.9,318.9,573.6,320.2,565.9,320.2z"/>
		</g>
		<g>
			<path class="st1" d="M588.8,246.2l-58.1-131.4h32.3l42,96.3L588.8,246.2z"/>
		</g>
	</g>
	<g>
		<g>
			<path class="st1" d="M452.2,265.2c-14.9,0-29.3-2.3-42.8-6.9c-13.6-4.6-24.6-10.6-32.5-18l-1.2-1.1l12.1-25.5l2.1,1.9
				c7.1,6.2,16.3,11.5,27.4,15.6c11.1,4.1,22.8,6.2,34.8,6.2c10.9,0,19.8-1.3,26.5-3.7c6.6-2.4,11.4-5.7,14.4-9.9
				c3.1-4.1,4.5-8.7,4.5-14c0-6-1.9-10.8-5.8-14.4c-4.1-3.8-9.5-7-16.1-9.3c-6.8-2.5-14.4-4.6-22.5-6.4c-8.1-1.8-16.6-4-25.1-6.5
				c-8.4-2.5-16.3-5.7-23.3-9.7c-7.2-4-13.1-9.5-17.4-16.3c-4.1-6.4-6.3-14.7-6.5-24.9l0-2.2h31.5l0.2,2c0.5,5.4,2.2,9.5,5.3,12.4
				c4.1,3.8,9.5,6.9,16,9.2c6.7,2.3,14.3,4.5,22.5,6.4c8,1.9,16.4,4,25,6.5c8.5,2.4,16.4,5.7,23.3,9.6c7.1,4,13,9.4,17.4,16.1v0
				c4.4,6.8,6.7,15.5,6.7,26c0,10.1-2.8,19.6-8.3,28.3c-5.5,8.7-14.1,15.7-25.6,20.9C483.7,262.6,469.3,265.2,452.2,265.2z"/>
		</g>
		<g>
			<path class="st1" d="M415.1,106.9l-1.4-0.1h-31.8l0.9-2.8c1.3-4.3,3.1-8.2,5.3-11.7c5.7-8.8,14-15.7,25.2-21
				c11.2-5.2,25.5-7.8,42.6-7.8c7.7,0,15.4,0.7,22.9,2.1c12.9,2.3,24.8,7.3,35.2,14.8l1.7,1.2l-5.8,8.8c-5.1,7.5-15.1,10.3-23.8,6.5
				c-4.3-1.8-8.7-3.1-13.3-4c-6.5-1.2-11.9-1.7-16.8-1.7c-10.6,0-19,1.3-25.9,4c-6.3,2.5-11.3,6.1-14.4,10.3L415.1,106.9z"/>
		</g>
	</g>
	<g>
		<g>
			<path class="st1" d="M753.6,265.2c-12.3,0-24.1-1.7-35.2-5.1c-11.1-3.4-20-7.6-26.5-12.5l-1.4-1.1l13-24.7l2,1.4
				c6,4.1,13.6,7.6,22.6,10.5c8.9,2.9,18.1,4.3,27.4,4.3c11.8,0,20.4-1.6,25.4-4.9c4.8-3.1,7.1-7.3,7.1-12.8c0-3.9-1.4-6.9-4.1-9
				c-3.1-2.4-7.2-4.2-12.3-5.4c-5.3-1.3-11.3-2.4-17.9-3.4c-6.5-1-13.2-2.3-20-3.9c-6.8-1.6-13.1-3.9-18.7-6.8
				c-5.8-3-10.5-7.2-14-12.6c-2.2-3.4-3.6-7.8-4.4-14.1l-0.3-2.4l31.5,0l1.1,1.6c0.5,0.8,1,1.6,1.7,2.1c3.2,2.5,7.4,4.4,12.5,5.8
				c5.4,1.4,11.4,2.7,17.8,3.7c6.5,1,13.2,2.3,20,3.9c6.8,1.6,13,3.8,18.5,6.7c5.7,2.9,10.4,7,14,12.3c3.6,5.3,5.5,12.4,5.5,21.1
				c0,9.3-2.7,17.4-8.2,24.2c-5.4,6.7-13,12-22.7,15.7C778.4,263.4,766.8,265.2,753.6,265.2z"/>
		</g>
		<g>
			<path class="st1" d="M728.4,149.5l-31.4,0l0.6-2.7c1.3-5.3,3.2-9.7,5.9-13.4c5.3-7,12.7-12.4,22.1-16.1
				c9.7-3.6,20.8-5.5,33.2-5.5c6.5,0,13.1,0.5,19.8,1.6c12.6,1.8,23.8,6,34.3,12.9l1.7,1.2l-5.2,8.5c-4.7,7.5-14,10.5-22.9,7.3
				c-3.7-1.3-8.5-2.9-13-3.4c-4.6-0.8-9.2-1.1-15-1.1c-11.1,0-19.3,1.8-24.6,5.3c-1.9,1.2-3.4,2.7-4.8,4.6L728.4,149.5z"/>
		</g>
	</g>
	<g>
		<path class="st2" d="M1275,265.2h-14.6c-7.5,0-14.5-3.3-19.2-9.1L1132.7,123v142.2h-32.6V64.9h15.8c6.8,0,13.1,3,17.3,8.2
			l109.2,134V64.9h32.7V265.2z"/>
	</g>
</g>
</svg>
