<?xml version="1.0" encoding="utf-8"?>
<!-- Generator: Adobe Illustrator 19.1.0, SVG Export Plug-In . SVG Version: 6.00 Build 0)  -->
<svg version="1.1" id="Calque_1" xmlns="http://www.w3.org/2000/svg" xmlns:xlink="http://www.w3.org/1999/xlink" x="0px" y="0px"
	 viewBox="0 0 864.6 218.3" style="enable-background:new 0 0 864.6 218.3;" xml:space="preserve">
<style type="text/css">
	.st0{fill:#4EBCC2;}
	.st1{fill:#007788;}
	.st2{fill:#BADFE1;}
	.st3{fill:#009DB5;}
	.st4{fill:#FBB800;}
	.st5{fill:none;}
</style>
<g>
	<g>
		<path class="st0" d="M109.4,148.7c-6.5,0-12.7-1.6-18.1-4.4c-1.9-1-4.2-0.6-5.8,0.9l-43,43c-2.2,2.2-1.9,5.7,0.5,7.6
			c18.4,14.1,41.4,22.5,66.4,22.5c9.7,0,19.1-1.3,28.1-3.7c3-0.8,4.6-4,3.4-6.8l-23.3-56.2c-0.8-2-2.9-3.2-5.1-3.1
			C111.4,148.7,110.4,148.7,109.4,148.7"/>
		<path class="st1" d="M347.5,35.3c-43.5,0-76.3,29.9-76.3,69.5c0,39.6,32.8,69.5,76.3,69.5c43.6,0,76.5-29.9,76.5-69.5
			C424,65.2,391.1,35.3,347.5,35.3 M347.5,145.8c-26.9,0-45-16.5-45-41c0-24.6,18.1-41,45-41c27.1,0,45.3,16.5,45.3,41
			C392.8,129.3,374.6,145.8,347.5,145.8"/>
		<path class="st1" d="M540.9,100.4l-3.1-0.8l2.9-1.3c8.3-2.7,17.2-14.1,17.2-26c0-19.5-18.7-34.2-43.4-34.2H458
			c-3.8,0-6.9,3.1-6.9,6.9v119.6c0,3.8,3.1,6.9,6.9,6.9H514c32.4,0,51.7-14.8,51.7-39.5C565.7,119.1,554.1,103.6,540.9,100.4
			 M482.4,61.3h24.4c11.1,0,19.5,6.6,19.5,15.3c0,8.7-8.4,15.3-19.5,15.3h-24.4V61.3z M510.4,148.3h-27.9v-35.8h27.9
			c13.3,0,22.3,7.2,22.3,17.9C532.6,141.1,523.7,148.3,510.4,148.3"/>
		<path class="st1" d="M594.8,171.5h99.7V152c0-3.8-3.1-6.9-6.9-6.9h-68.4v-29.1h57.9V91.7h-57.9V64.4h67.1c3.8,0,6.9-3.1,6.9-6.9
			V38.1h-98.4c-3.8,0-6.9,3.1-6.9,6.9v119.6C587.9,168.4,591,171.5,594.8,171.5"/>
		<path class="st1" d="M788,35.3c-43.5,0-76.3,29.9-76.3,69.5c0,39.6,32.8,69.5,76.3,69.5c43.6,0,76.5-29.9,76.5-69.5
			C864.6,65.2,831.7,35.3,788,35.3 M788,145.9c-27,0-45.2-16.6-45.2-41.2c0-24.6,18.2-41.2,45.2-41.2c27.2,0,45.4,16.5,45.4,41.2
			C833.4,129.4,815.2,145.9,788,145.9"/>
		<path class="st2" d="M133.7,144.9l23.3,56.2c1.2,2.8,4.6,3.9,7.2,2.4c28.6-16.6,48.9-45.8,53.5-80.1c0.4-3-1.9-5.8-5-5.8h-60.8
			c-2.1,0-4.1,1.3-4.7,3.4c-2.3,7.1-6.5,13.4-12.1,18.2C133.4,140.7,132.9,143,133.7,144.9"/>
		<path class="st1" d="M100.6,66.4V5.6c0-3.1-2.7-5.4-5.7-5C60.6,5.2,31.4,25.5,14.8,54.1c-1.5,2.6-0.4,6,2.4,7.2l56.2,23.3
			c2,0.8,4.3,0.3,5.7-1.3c4.7-5.6,11-9.8,18.2-12.1C99.2,70.5,100.6,68.5,100.6,66.4"/>
		<path class="st3" d="M69.6,109c0-1,0-2.1,0.1-3.1c0.2-2.2-1-4.3-3.1-5.1L10.5,77.5c-2.8-1.2-6,0.4-6.8,3.4C1.3,89.9,0,99.3,0,109
			c0,25,8.4,48,22.5,66.4c1.9,2.4,5.4,2.7,7.6,0.5l43-43c1.5-1.5,1.9-3.9,0.9-5.8C71.2,121.7,69.6,115.5,69.6,109"/>
		<path class="st4" d="M213.4,94.4h-84.5c-2.7,0-4.9-2.2-4.9-4.9V5c0-2.7,2.2-5,4.9-5h84.5c2.7,0,4.9,2.2,4.9,5v84.5
			C218.3,92.2,216.1,94.4,213.4,94.4"/>
	</g>
	<rect y="0" class="st5" width="864.6" height="218.3"/>
</g>
</svg>
